<?xml version="1.0" encoding="UTF-8" standalone="no"?>
<!-- Created with Inkscape (http://www.inkscape.org/) -->

<svg
   xmlns:dc="http://purl.org/dc/elements/1.1/"
   xmlns:cc="http://creativecommons.org/ns#"
   xmlns:rdf="http://www.w3.org/1999/02/22-rdf-syntax-ns#"
   xmlns:svg="http://www.w3.org/2000/svg"
   xmlns="http://www.w3.org/2000/svg"
   xmlns:sodipodi="http://sodipodi.sourceforge.net/DTD/sodipodi-0.dtd"
   xmlns:inkscape="http://www.inkscape.org/namespaces/inkscape"
   version="1.1"
   id="svg2"
   xml:space="preserve"
   width="2829.3333"
   height="2829.3333"
   viewBox="0 0 2829.3333 2829.3333"
   sodipodi:docname="46129.svg"
   inkscape:version="0.92.4 (5da689c313, 2019-01-14)"><metadata
     id="metadata8"><rdf:RDF><cc:Work
         rdf:about=""><dc:format>image/svg+xml</dc:format><dc:type
           rdf:resource="http://purl.org/dc/dcmitype/StillImage" /></cc:Work></rdf:RDF></metadata><defs
     id="defs6"><marker
       inkscape:stockid="Arrow2Sstart"
       orient="auto"
       refY="0.0"
       refX="0.0"
       id="Arrow2Sstart"
       style="overflow:visible"
       inkscape:isstock="true"><path
         id="path1341"
         style="fill-rule:evenodd;stroke-width:0.625;stroke-linejoin:round;stroke:#000000;stroke-opacity:1;fill:#000000;fill-opacity:1"
         d="M 8.7185878,4.0337352 L -2.2072895,0.016013256 L 8.7185884,-4.0017078 C 6.9730900,-1.6296469 6.9831476,1.6157441 8.7185878,4.0337352 z "
         transform="scale(0.3) translate(-2.3,0)" /></marker></defs><sodipodi:namedview
     pagecolor="#ffffff"
     bordercolor="#666666"
     borderopacity="1"
     objecttolerance="10"
     gridtolerance="10"
     guidetolerance="10"
     inkscape:pageopacity="0"
     inkscape:pageshadow="2"
     inkscape:window-width="1920"
     inkscape:window-height="1001"
     id="namedview4"
     showgrid="false"
     showguides="false"
     inkscape:zoom="0.35355339"
     inkscape:cx="1216.8651"
     inkscape:cy="2101.1334"
     inkscape:window-x="-9"
     inkscape:window-y="-9"
     inkscape:window-maximized="1"
     inkscape:current-layer="g12" /><g
     id="g10"
     inkscape:groupmode="layer"
     inkscape:label="ink_ext_XXXXXX"
     transform="matrix(1.3333333,0,0,-1.3333333,0,2829.3333)"><g
       id="g12"
       transform="scale(0.1)"><g
         id="g294"
         transform="scale(1.11328)"><path
           d="m 11061.4,13759.4 c 0,-361.5 -50.6,-705.4 -142,-1016.9 -263.5,-896.9 -864.5,-1523.7 -1563.58,-1523.7 -699.09,0 -1300.09,626.8 -1563.45,1523.7 -91.43,311.5 -142.2,655.4 -142.2,1016.9 0,1403.1 763.72,2540.6 1705.65,2540.6 941.98,0 1705.58,-1137.5 1705.58,-2540.6"
           style="fill:#fbfcde;fill-opacity:1;fill-rule:nonzero;stroke:none"
           id="path296"
           inkscape:connector-curvature="0" /></g><g
         id="g298"
         transform="scale(1.1171)"><path
           d="m 11023.5,13712.3 h -55.7 c 0,-355.1 -49.8,-692.6 -139.3,-997.8 -129,-439.3 -340.6,-810.8 -602.1,-1070.5 -130.7,-129.9 -273.86,-231.9 -425.32,-301.3 -151.56,-69.5 -311.44,-106.5 -477.31,-106.5 -165.79,0 -325.66,37 -477.21,106.5 -227.22,104.1 -435.71,281.7 -611.64,516.4 -175.9,234.6 -319.02,526 -415.74,855.4 -89.56,305.2 -139.45,642.8 -139.44,997.8 -0.13,689 187.96,1312 488.42,1759.2 150.15,223.7 328.15,403.3 523.74,526.5 195.72,123.2 408.52,190.3 631.87,190.4 223.43,-0.1 436.22,-67.2 631.9,-190.4 293.43,-184.7 547.13,-496.9 726.83,-893.2 179.7,-396.1 285.3,-875.7 285.3,-1392.5 h 55.7 55.8 c -0.1,709.3 -192.6,1352.3 -507.3,1821.4 -157.5,234.5 -345.7,425.6 -556.8,558.7 -210.99,133 -445.35,207.6 -691.43,207.5 -245.99,0.1 -480.32,-74.5 -691.33,-207.5 -316.67,-199.7 -582.02,-529.6 -768.93,-941.5 -186.84,-412 -295.27,-906.6 -295.31,-1438.6 0.01,-365.5 51.3,-713.5 143.96,-1029.2 133.54,-454.5 352.69,-842.2 630.43,-1118.2 138.87,-138 292.54,-248 457.5,-323.6 164.89,-75.6 341.15,-116.7 523.68,-116.7 182.52,0 358.87,41.1 523.76,116.7 247.47,113.4 469.37,304.1 654.37,550.8 185,246.9 333.5,550.1 433.5,891 92.7,315.7 143.9,663.7 143.9,1029.2 h -55.8"
           style="fill:#4b455c;fill-opacity:1;fill-rule:nonzero;stroke:none"
           id="path300"
           inkscape:connector-curvature="0" /></g><path
         d="m 8655.54,14249.9 c -20.67,70.2 -32.58,137 15.5,203 11.95,-54.5 24.99,-108.3 39.09,-161.2 -18.37,-13.7 -36.57,-27.7 -54.59,-41.8 m 3519.06,0.9 c -17.6,13.8 -35.4,27.4 -53.4,40.9 84.4,317.2 130.9,663.6 130.9,1026.3 0,299.9 -31.8,588.6 -90.5,858.8 9.4,-6 18.9,-12 28.4,-17.9 14.8,-9.1 29.6,-18 44.6,-26.8 51.9,-257.8 79.8,-531.1 79.8,-814.1 0,-377.5 -49.6,-737.8 -139.8,-1067.2"
         style="fill:#423d51;fill-opacity:1;fill-rule:nonzero;stroke:none"
         id="path306"
         inkscape:connector-curvature="0" /><path
         d="m 10178.4,12513.2 c -144.3,41.4 -288.11,85.2 -422.1,154.2 -265.18,136.7 -480.33,358.3 -650.52,600.3 -95.34,135.5 -176.05,280.5 -244.38,431.4 -21.05,46.6 -213.83,464.9 -186.35,486.8 478.38,382 1082.74,610 1740.55,610 657.9,0 1262.2,-228 1740.7,-610 -22.4,-76.2 -47.2,-150.3 -73.8,-222.8 5.5,15.2 -11.5,38.8 -41.9,66.7 15.4,43.7 30,88.2 43.8,133.3 -462.6,358 -1040.4,570.5 -1668.8,570.5 -628.28,0 -1206.15,-212.5 -1668.69,-570.5 107.73,-351.5 263.04,-662.9 452.34,-915.3 196.53,-262.2 429.43,-460.6 683.26,-576.9 59.1,-27.1 119.39,-49.7 180.59,-67.8 33.6,-37.3 70.9,-69.2 115.3,-89.9"
         style="fill:#423d51;fill-opacity:1;fill-rule:nonzero;stroke:none"
         id="path314"
         inkscape:connector-curvature="0" /><path
         d="m 11176.3,14231.9 c 0,-57.3 -46.6,-103.8 -103.8,-103.8 -57.4,0 -103.9,46.5 -103.9,103.8 0,57.4 46.5,103.9 103.9,103.9 57.2,0 103.8,-46.5 103.8,-103.9"
         style="fill:#4b455c;fill-opacity:1;fill-rule:nonzero;stroke:none"
         id="path316"
         inkscape:connector-curvature="0" /><path
         d="m 9862.71,14231.9 c 0,-57.3 -46.53,-103.8 -103.87,-103.8 -57.35,0 -103.83,46.5 -103.83,103.8 0,57.4 46.48,103.9 103.83,103.9 57.34,0 103.87,-46.5 103.87,-103.9"
         style="fill:#4b455c;fill-opacity:1;fill-rule:nonzero;stroke:none"
         id="path318"
         inkscape:connector-curvature="0" /><path
         d="m 11381,15711.5 c -2.3,2.7 -27.9,32.1 -72.2,62.7 -22.1,15.2 -49,30.7 -80.4,42.7 -31.4,11.9 -67.5,20.4 -107,20.4 -39.4,0 -81.9,-8.7 -123.8,-29.1 -42.1,-20.3 -83.3,-51.9 -122.6,-96 -22.9,-25.6 -20.7,-65 5,-87.9 25.6,-22.9 65,-20.7 87.9,5 30.5,34 58.7,54.6 83.9,66.8 25.4,12.2 47.9,16.5 69.6,16.6 21.7,0 42.7,-4.7 62.6,-12.3 29.9,-11.2 56.7,-29.5 75.4,-44.8 9.3,-7.7 16.6,-14.6 21.4,-19.3 2.3,-2.4 4.1,-4.2 5.1,-5.3 l 1,-1.1 0.1,-0.1 25.6,22.5 -25.8,-22.4 0.2,-0.1 25.6,22.5 -25.8,-22.4 c 22.6,-26 61.9,-28.8 87.9,-6.2 26,22.5 28.8,61.8 6.3,87.8"
         style="fill:#4b455c;fill-opacity:1;fill-rule:nonzero;stroke:none"
         id="path320"
         inkscape:connector-curvature="0" /><path
         d="m 9956.9,15711.5 c -2.34,2.6 -27.95,32.1 -72.16,62.7 -22.15,15.2 -49.04,30.7 -80.46,42.7 -31.37,11.9 -67.48,20.4 -106.93,20.4 -39.4,0 -81.95,-8.7 -123.9,-29.1 -42.02,-20.3 -83.23,-51.8 -122.6,-95.9 -22.93,-25.7 -20.71,-65.1 4.95,-88 25.66,-22.9 65.04,-20.7 87.96,4.9 30.45,34.1 58.71,54.6 83.97,66.9 25.34,12.2 47.9,16.5 69.62,16.6 21.65,0 42.65,-4.7 62.58,-12.3 29.82,-11.2 56.69,-29.4 75.34,-44.8 9.33,-7.7 16.63,-14.6 21.37,-19.3 2.37,-2.4 4.1,-4.2 5.13,-5.3 l 1.01,-1.1 0.1,-0.1 25.67,22.5 -25.85,-22.3 0.18,-0.2 25.67,22.5 -25.85,-22.3 c 22.52,-26.1 61.87,-28.9 87.88,-6.3 26.01,22.5 28.84,61.8 6.32,87.8"
         style="fill:#4b455c;fill-opacity:1;fill-rule:nonzero;stroke:none"
         id="path322"
         inkscape:connector-curvature="0" /><g
         id="g368"
         transform="scale(1.1334)"
         style="fill:#333333"><path
           d="m 7611.62,14937.8 c 81.08,-137.5 218.81,-232.5 342.87,-328 159.01,-122.3 375.16,-264.4 589.51,-283.2 -9.93,56.3 -69.94,130.4 -102.18,180.2 -69.98,108.4 -162.66,215.3 -182.95,347.3 -19.77,128.6 75,98.7 146.37,32.9 157.49,-145 322.7,-386.4 506.32,-497.1 268.66,-162 533.53,-178.4 533.53,-178.4 0,0 -221.2,238.2 -264.87,282.1 -83.02,83.7 -338.98,370.1 -240.16,519.2 81.96,123.9 164.55,-66.8 298.3,-228.3 203.11,-245.1 417.95,-356.4 417.95,-356.4 0,0 -167.37,466.6 -183.43,583.4 85.05,-74.8 242.19,-227.7 344.98,-335.1 96.17,-100.6 182.44,-207.7 291.84,-295.2 173.9,-138.9 370,-177.4 371.6,-177.7 -66,42.8 -129.7,157.3 -185.6,253.4 -87.4,150.6 -150.5,261.1 -119.2,412.6 19,91.8 143.2,-104.1 165.1,-133.1 76.8,-102 116.7,-169.5 295.2,-327.1 160.2,-141.5 510.1,-293.6 510.1,-293.6 0,0 -71.9,237.5 -127.4,357.3 -63.8,137.8 -121.7,278.3 -165.2,424 -57.8,194 -96.1,416.7 -180.6,579.5 -128.1,246.7 -434.3,471.5 -714.59,616.6 -187.22,96.8 -402.59,164.1 -612.84,186.4 -193.14,20.5 -423.5,14 -611.93,-36.9 -417.1,-112.7 -859.31,-361.6 -1090.6,-739.2 -90.1,-147.2 -125,-408.2 -32.12,-565.6"
           style="fill:#333333;fill-opacity:1;fill-rule:nonzero;stroke:none"
           id="path370"
           inkscape:connector-curvature="0" /></g><g
         id="g376"
         transform="scale(1.11154)"><path
           d="m 10969.8,15614.8 c -157.7,-235.9 -396.8,-352.9 -534.1,-261.3 -137.3,91.8 -120.7,357.5 37.1,593.5 157.7,236.1 396.9,353 534.1,261.3 137.2,-91.8 120.6,-357.5 -37.1,-593.5"
           style="fill:#fbfcde;fill-opacity:1;fill-rule:nonzero;stroke:none"
           id="path378"
           inkscape:connector-curvature="0" /></g><g
         id="g380"
         transform="scale(1.11124)"><path
           d="m 10972.8,15619.1 -46.6,31.1 c -56.9,-85.1 -124.9,-153.3 -192.5,-199.1 -33.8,-23 -67.3,-40.3 -98.9,-51.7 -31.6,-11.5 -61.1,-16.9 -87,-16.9 -15.5,0 -29.7,1.9 -42.6,5.6 -13,3.6 -24.7,9 -35.6,16.2 -10.6,7.2 -19.8,15.8 -28.1,26.1 -12.3,15.4 -22.3,34.9 -29.2,58.7 -7,23.7 -10.8,51.6 -10.8,82.5 0,49.4 9.7,106.5 29.9,166.2 20.1,59.7 50.5,122 90.9,182.3 v 0.1 c 56.8,85.1 124.9,153.3 192.5,199.1 33.7,23 67.3,40.3 98.8,51.7 31.6,11.5 61.1,16.9 86.9,16.9 15.6,0 29.8,-2 42.7,-5.6 12.9,-3.7 24.6,-9 35.4,-16.3 10.7,-7.1 20,-15.7 28.3,-26 12.2,-15.5 22.2,-35 29.2,-58.8 7,-23.7 10.7,-51.5 10.7,-82.4 0,-49.5 -9.7,-106.6 -29.8,-166.2 -20.1,-59.7 -50.4,-122 -90.8,-182.4 l 46.6,-31.1 46.6,-31.2 c 45.7,68.4 80.3,139.3 103.8,208.9 23.4,69.6 35.7,138 35.8,202 -0.1,53.2 -8.6,103.6 -27.7,148.6 -9.4,22.4 -21.7,43.5 -36.8,62.4 -15,19 -33,35.7 -53.5,49.5 -20.9,13.9 -43.7,24.2 -67.4,30.9 -23.7,6.7 -48.3,9.8 -73.1,9.8 -41.3,0 -83.3,-8.5 -125,-23.5 -62.6,-22.7 -124.8,-60.3 -183.7,-110 -58.9,-49.7 -114.4,-111.8 -162.7,-184.1 v 0.1 c -45.8,-68.4 -80.5,-139.3 -104,-208.9 -23.4,-69.7 -35.6,-138 -35.7,-202 0.1,-53.3 8.5,-103.6 27.6,-148.6 9.6,-22.5 21.7,-43.5 36.8,-62.5 15.1,-18.9 33,-35.7 53.6,-49.4 20.8,-14 43.7,-24.3 67.4,-30.9 23.6,-6.7 48.2,-9.8 73,-9.8 41.3,0 83.4,8.5 125,23.5 62.7,22.7 124.9,60.3 183.8,110 58.8,49.8 114.5,111.8 162.8,184 l -46.6,31.2"
           style="fill:#4b455c;fill-opacity:1;fill-rule:nonzero;stroke:none"
           id="path382"
           inkscape:connector-curvature="0" /></g><g
         id="g392"
         transform="scale(1.11154)"><path
           d="m 7771.05,15614.8 c 157.72,-235.9 396.82,-352.9 534.11,-261.3 137.27,91.8 120.66,357.5 -37.09,593.5 -157.75,236.1 -396.85,353 -534.05,261.3 -137.26,-91.8 -120.66,-357.5 37.03,-593.5"
           style="fill:#fbfcde;fill-opacity:1;fill-rule:nonzero;stroke:none"
           id="path394"
           inkscape:connector-curvature="0" /></g><g
         id="g396"
         transform="scale(1.11124)"><path
           d="m 7773.15,15619.1 -46.6,-31.2 c 64.45,-96.3 141.7,-174.5 222.72,-229.6 40.54,-27.5 82.07,-49.3 123.8,-64.4 41.72,-15 83.73,-23.5 125.05,-23.5 24.82,0 49.39,3.1 73.08,9.8 23.68,6.6 46.46,16.9 67.35,30.9 20.54,13.7 38.51,30.5 53.57,49.4 22.65,28.4 38.76,61.6 49.16,97.2 10.4,35.6 15.2,73.9 15.22,113.9 -0.03,63.9 -12.3,132.3 -35.72,202 -23.46,69.6 -58.16,140.5 -103.86,208.9 -64.45,96.3 -141.71,174.5 -222.71,229.6 -40.53,27.5 -82.05,49.3 -123.77,64.4 -41.7,15 -83.7,23.5 -125.01,23.5 -24.84,0 -49.41,-3.1 -73.11,-9.8 -23.7,-6.7 -46.49,-17 -67.36,-30.9 -20.53,-13.8 -38.5,-30.5 -53.56,-49.5 -22.65,-28.4 -38.75,-61.5 -49.15,-97.1 -10.4,-35.7 -15.21,-74 -15.22,-114 0.03,-63.9 12.29,-132.3 35.7,-201.9 23.45,-69.6 58.14,-140.5 103.81,-208.9 l 46.61,31.2 46.62,31.1 c -40.35,60.4 -70.69,122.7 -90.78,182.3 -20.11,59.7 -29.87,116.8 -29.84,166.2 -0.02,41.3 6.78,77 18.66,104.9 5.94,14 13.09,26.1 21.3,36.4 8.23,10.3 17.49,18.9 28.16,26 10.88,7.3 22.55,12.6 35.49,16.3 12.92,3.6 27.13,5.6 42.67,5.6 25.79,0 55.29,-5.4 86.88,-16.9 47.39,-17.1 99.16,-47.6 149.48,-90.2 50.35,-42.5 99.26,-96.8 141.91,-160.6 40.37,-60.4 70.72,-122.7 90.82,-182.4 20.12,-59.7 29.89,-116.8 29.86,-166.2 0.03,-41.2 -6.78,-76.9 -18.67,-104.9 -5.93,-13.9 -13.08,-26 -21.29,-36.3 -8.22,-10.4 -17.49,-18.9 -28.16,-26.1 -10.86,-7.2 -22.55,-12.6 -35.48,-16.2 -12.92,-3.7 -27.13,-5.6 -42.66,-5.6 -25.81,0 -55.33,5.4 -86.92,16.9 -47.4,17.1 -99.2,47.6 -149.51,90.2 -50.36,42.5 -99.28,96.8 -141.92,160.6 l -46.62,-31.1"
           style="fill:#4b455c;fill-opacity:1;fill-rule:nonzero;stroke:none"
           id="path398"
           inkscape:connector-curvature="0" /></g><path
         style="opacity:0;fill:#ff0000;fill-opacity:1;stroke:#000000;stroke-width:16;stroke-opacity:1"
         d="m 433.50828,1062.3729 c -37.98063,-18.8846 -60.09847,-27.6974 -85.25,-33.9675 -21.77107,-5.4274 -39.63468,-7.5608 -63.09939,-7.5356 -17.21843,0.018 -27.19132,0.7595 -44.90061,3.3362 -8.04266,1.1703 -27.9094,5.0171 -31.96688,6.1899 -1.84508,0.5333 -2.33374,0.4042 -1.79155,-0.4731 0.52142,-0.8436 15.21846,-11.8106 23.83916,-17.7888 32.74087,-22.7048 59.9023,-34.85423 88.52602,-39.59807 7.25814,-1.2029 29.92785,-1.19734 37.28651,0.009 28.94079,4.74496 55.56942,17.05013 85.58261,39.54797 3.98695,2.9887 7.52327,5.5391 7.85849,5.6678 0.33522,0.1286 4.05337,-2.3455 8.26256,-5.4979 29.51596,-22.10617 56.11944,-34.57164 84.20164,-39.45408 5.62874,-0.97863 8.20486,-1.12167 20.20144,-1.12167 14.8327,0 19.73635,0.5426 32,3.54082 21.70128,5.30555 45.49251,16.75416 71.65606,34.48173 8.87304,6.0121 28.9227,20.7874 28.61941,21.0907 -0.0943,0.094 -3.73861,-0.6191 -8.09846,-1.5853 -23.06113,-5.1107 -42.07182,-7.6213 -62.17701,-8.2112 -28.19834,-0.8273 -50.03003,1.488 -74.85506,7.9385 -24.79783,6.4434 -47.73229,15.7494 -86.01624,34.9024 -7.21671,3.6104 -13.29171,6.5462 -13.5,6.524 -0.20829,-0.022 -7.5787,-3.6203 -16.3787,-7.9959 z"
         id="path1713"
         inkscape:connector-curvature="0"
         transform="matrix(7.5000002,0,0,-7.5000002,0,21220)" /><path
         style="opacity:1;fill:#501616;fill-opacity:1;stroke:none;stroke-width:685.71429443;stroke-opacity:1"
         d="m 10299.417,15684.158 c -433.6227,222.476 -744.7782,297.065 -1159.0988,277.851 -153.214,-7.105 -305.0892,-18.895 -337.5,-26.201 -97.1762,-21.903 -67.7846,23.782 75.0002,116.576 293.5211,190.755 622.5625,298.362 827.8654,270.738 210.1255,-28.273 452.9682,-130.256 654.5032,-274.863 58.071,-41.668 115.928,-69.003 128.572,-60.745 12.643,8.258 90.488,59.107 172.988,112.999 479.85,313.453 874.106,296.855 1409.931,-59.361 83.092,-55.24 139.886,-104.167 126.208,-108.726 -13.679,-4.56 -91.932,2.114 -173.895,14.832 -449.849,69.796 -879.709,-8.62 -1356.458,-247.45 -102.89,-51.543 -194.497,-93.24 -203.572,-92.66 -9.075,0.578 -83.12,35.234 -164.544,77.01 z"
         id="path2283-9"
         inkscape:connector-curvature="0" /><path
         style="fill:#ff5555;stroke:none;stroke-width:7.5px;stroke-linecap:butt;stroke-linejoin:miter;stroke-opacity:1"
         d="m 10033.845,17564.533 h 763.676 l -233.345,2969.849 -109.289,407.871 -103.554,-386.468 z"
         id="path2335"
         inkscape:connector-curvature="0" /></g></g></svg>