<?xml version="1.0" encoding="UTF-8" standalone="no"?>
<!-- Created with Inkscape (http://www.inkscape.org/) -->

<svg
   xmlns:dc="http://purl.org/dc/elements/1.1/"
   xmlns:cc="http://creativecommons.org/ns#"
   xmlns:rdf="http://www.w3.org/1999/02/22-rdf-syntax-ns#"
   xmlns:svg="http://www.w3.org/2000/svg"
   xmlns="http://www.w3.org/2000/svg"
   xmlns:sodipodi="http://sodipodi.sourceforge.net/DTD/sodipodi-0.dtd"
   xmlns:inkscape="http://www.inkscape.org/namespaces/inkscape"
   version="1.1"
   id="svg2"
   xml:space="preserve"
   width="569.57703"
   height="983.56622"
   viewBox="0 0 569.57703 983.56626"
   sodipodi:docname="unibrowser_icon_binoculars.svg"
   inkscape:version="0.92.4 (5da689c313, 2019-01-14)"
   inkscape:export-filename="C:\Google Drive\GitHub\unibrowser\raw\unibrowser_icon.png"
   inkscape:export-xdpi="179.98178"
   inkscape:export-ydpi="179.98178"><metadata
     id="metadata8"><rdf:RDF><cc:Work
         rdf:about=""><dc:format>image/svg+xml</dc:format><dc:type
           rdf:resource="http://purl.org/dc/dcmitype/StillImage" /><dc:title></dc:title></cc:Work></rdf:RDF></metadata><defs
     id="defs6"><inkscape:path-effect
       effect="skeletal"
       id="path-effect867"
       is_visible="true"
       pattern="M 0,5 C 0,2.24 2.24,0 5,0 7.76,0 10,2.24 10,5 10,7.76 7.76,10 5,10 2.24,10 0,7.76 0,5 Z"
       copytype="single_stretched"
       prop_scale="1"
       scale_y_rel="false"
       spacing="0"
       normal_offset="0"
       tang_offset="0"
       prop_units="false"
       vertical_pattern="false"
       fuse_tolerance="0" /><inkscape:path-effect
       effect="spiro"
       id="path-effect865"
       is_visible="true" /><marker
       inkscape:stockid="Arrow2Sstart"
       orient="auto"
       refY="0"
       refX="0"
       id="Arrow2Sstart"
       style="overflow:visible"
       inkscape:isstock="true"><path
         id="path1341"
         style="fill:#000000;fill-opacity:1;fill-rule:evenodd;stroke:#000000;stroke-width:0.625;stroke-linejoin:round;stroke-opacity:1"
         d="M 8.7185878,4.0337352 -2.2072895,0.01601326 8.7185884,-4.0017078 c -1.7454984,2.3720609 -1.7354408,5.6174519 -6e-7,8.035443 z"
         transform="matrix(0.3,0,0,0.3,-0.69,0)"
         inkscape:connector-curvature="0" /></marker></defs><sodipodi:namedview
     pagecolor="#ffffff"
     bordercolor="#666666"
     borderopacity="1"
     objecttolerance="10"
     gridtolerance="10"
     guidetolerance="10"
     inkscape:pageopacity="1"
     inkscape:pageshadow="2"
     inkscape:window-width="1920"
     inkscape:window-height="1001"
     id="namedview4"
     showgrid="false"
     showguides="false"
     inkscape:zoom="0.1767767"
     inkscape:cx="-1721.0598"
     inkscape:cy="-307.16225"
     inkscape:window-x="-9"
     inkscape:window-y="-9"
     inkscape:window-maximized="1"
     inkscape:current-layer="g12"
     fit-margin-left="5"
     fit-margin-top="5"
     fit-margin-right="5"
     fit-margin-bottom="5" /><g
     id="g10"
     inkscape:groupmode="layer"
     inkscape:label="ink_ext_XXXXXX"
     transform="matrix(1.3333333,0,0,-1.3333333,-1119.9424,2679.293)"><g
       id="g12"
       transform="scale(0.1)"><g
         id="g294"
         transform="matrix(1.11328,0,0,1.0505262,0,1022.8871)"
         style="stroke:#916f6f;stroke-width:101.05274963;stroke-miterlimit:4;stroke-dasharray:none;stroke-opacity:1"><path
           d="m 11061.4,13759.4 c 0,-361.5 -50.6,-705.4 -142,-1016.9 -263.5,-896.9 -864.5,-1523.7 -1563.58,-1523.7 -98.5802,0 -195.21,12.464 -289.2176,36.391 -572.6553,145.753 -1048.0094,716.883 -1274.2324,1487.309 -91.43,311.5 -142.2,655.4 -142.2,1016.9 0,1403.1 763.72,2540.6 1705.65,2540.6 941.98,0 1705.58,-1137.5 1705.58,-2540.6"
           style="fill:#fbfcde;fill-opacity:1;fill-rule:nonzero;stroke:#916f6f;stroke-width:101.05274963;stroke-miterlimit:4;stroke-dasharray:none;stroke-opacity:1"
           id="path296"
           inkscape:connector-curvature="0"
           sodipodi:nodetypes="ccsscssc" /></g><g
         id="g298"
         transform="scale(1.1171)" /><path
         d="m 11176.3,13721.9 c 0,-57.3 -46.6,-103.8 -103.8,-103.8 -57.4,0 -103.9,46.5 -103.9,103.8 0,57.4 46.5,103.9 103.9,103.9 57.2,0 103.8,-46.5 103.8,-103.9"
         style="fill:#916f6f;fill-opacity:1;fill-rule:nonzero;stroke:none"
         id="path316"
         inkscape:connector-curvature="0" /><path
         d="m 9862.71,13721.9 c 0,-57.3 -46.53,-103.8 -103.87,-103.8 -57.35,0 -103.83,46.5 -103.83,103.8 0,57.4 46.48,103.9 103.83,103.9 57.34,0 103.87,-46.5 103.87,-103.9"
         style="fill:#916f6f;fill-opacity:1;fill-rule:nonzero;stroke:none"
         id="path318"
         inkscape:connector-curvature="0" /><g
         id="g380"
         transform="scale(1.11124)" /><path
         style="opacity:1;fill:#916f6f;fill-opacity:1;stroke:none;stroke-width:685.71429443;stroke-opacity:1"
         d="m 10299.417,15804.158 c -433.6227,222.476 -744.7782,297.065 -1159.0988,277.851 -153.214,-7.105 -305.0892,-18.895 -337.5,-26.201 -97.1762,-21.903 -67.7846,23.782 75.0002,116.576 293.5211,190.755 622.5625,298.362 827.8654,270.738 210.1255,-28.273 452.9682,-130.256 654.5032,-274.863 58.071,-41.668 115.928,-69.003 128.572,-60.745 12.643,8.258 90.488,59.107 172.988,112.999 479.85,313.453 874.106,296.855 1409.931,-59.361 83.092,-55.24 139.886,-104.167 126.208,-108.726 -13.679,-4.56 -91.932,2.114 -173.895,14.832 -449.849,69.796 -879.709,-8.62 -1356.458,-247.45 -102.89,-51.543 -194.497,-93.24 -203.572,-92.66 -9.075,0.578 -83.12,35.234 -164.544,77.01 z"
         id="path2283-9"
         inkscape:connector-curvature="0" /><path
         style="fill:#000000;fill-opacity:0;stroke:#916f6f;stroke-width:82.31391144;stroke-linecap:butt;stroke-linejoin:miter;stroke-miterlimit:4;stroke-dasharray:none;stroke-opacity:1"
         d="m 9082.6601,13591.124 c 853.1417,-231.102 1733.6609,-275.322 2660.9849,0"
         id="path853"
         inkscape:connector-curvature="0"
         sodipodi:nodetypes="cc" /><g
         id="g368"
         transform="matrix(1.1334,0,0,1.078219,0,898.91799)"
         style="fill:#483e37"><path
           d="m 7611.62,14937.8 c 81.08,-137.5 218.81,-232.5 342.87,-328 159.01,-122.3 375.16,-264.4 589.51,-283.2 -9.93,56.3 -69.94,130.4 -102.18,180.2 -69.98,108.4 -162.66,215.3 -182.95,347.3 -19.77,128.6 75,98.7 146.37,32.9 157.49,-145 322.7,-386.4 506.32,-497.1 268.66,-162 533.53,-178.4 533.53,-178.4 0,0 -221.2,238.2 -264.87,282.1 -83.02,83.7 -338.98,370.1 -240.16,519.2 81.96,123.9 164.55,-66.8 298.3,-228.3 203.11,-245.1 417.95,-356.4 417.95,-356.4 0,0 -167.37,466.6 -183.43,583.4 85.05,-74.8 242.19,-227.7 344.98,-335.1 96.17,-100.6 182.44,-207.7 291.84,-295.2 173.9,-138.9 370,-177.4 371.6,-177.7 -66,42.8 -129.7,157.3 -185.6,253.4 -87.4,150.6 -150.5,261.1 -119.2,412.6 19,91.8 143.2,-104.1 165.1,-133.1 76.8,-102 116.7,-169.5 295.2,-327.1 160.2,-141.5 510.1,-293.6 510.1,-293.6 0,0 -71.9,237.5 -127.4,357.3 -63.8,137.8 -121.7,278.3 -165.2,424 -57.8,194 -96.1,416.7 -180.6,579.5 -128.1,246.7 -434.3,471.5 -714.59,616.6 -187.22,96.8 -402.59,164.1 -612.84,186.4 -193.14,20.5 -423.5,14 -611.93,-36.9 -417.1,-112.7 -859.31,-361.6 -1090.6,-739.2 -90.1,-147.2 -125,-408.2 -32.12,-565.6"
           style="fill:#483e37;fill-opacity:1;fill-rule:nonzero;stroke:none"
           id="path370"
           inkscape:connector-curvature="0" /></g><g
         id="g376"
         transform="scale(1.11154)"
         style="stroke:#916f6f;stroke-width:67.47395674;stroke-miterlimit:4;stroke-dasharray:none;stroke-opacity:1"><path
           d="m 10969.8,15614.8 c -157.7,-235.9 -396.8,-352.9 -534.1,-261.3 -137.3,91.8 -120.7,357.5 37.1,593.5 157.7,236.1 396.9,353 534.1,261.3 137.2,-91.8 120.6,-357.5 -37.1,-593.5"
           style="fill:#fbfcde;fill-opacity:1;fill-rule:nonzero;stroke:#916f6f;stroke-width:67.47395674;stroke-miterlimit:4;stroke-dasharray:none;stroke-opacity:1"
           id="path378"
           inkscape:connector-curvature="0" /></g><g
         id="g392"
         transform="scale(1.11154)"
         style="stroke:#916f6f;stroke-width:67.47395674;stroke-miterlimit:4;stroke-dasharray:none;stroke-opacity:1"><path
           d="m 7771.05,15614.8 c 157.72,-235.9 396.82,-352.9 534.11,-261.3 137.27,91.8 120.66,357.5 -37.09,593.5 -157.75,236.1 -396.85,353 -534.05,261.3 -137.26,-91.8 -120.66,-357.5 37.03,-593.5"
           style="fill:#fbfcde;fill-opacity:1;fill-rule:nonzero;stroke:#916f6f;stroke-width:67.47395674;stroke-miterlimit:4;stroke-dasharray:none;stroke-opacity:1"
           id="path394"
           inkscape:connector-curvature="0" /></g><path
         style="fill:#916f6f;stroke:#916f6f;stroke-width:88.27297974;stroke-linecap:round;stroke-linejoin:round;stroke-miterlimit:4;stroke-dasharray:none;stroke-opacity:1"
         d="m 9961.5811,17563.717 h 926.7559 l -283.175,2153.583 -132.627,295.768 -125.669,-280.247 z"
         id="path2335"
         inkscape:connector-curvature="0" /><g
         transform="matrix(15.181758,0,0,15.181758,4348.7359,8415.4314)"
         id="g1215"><g
           id="g936"
           transform="matrix(1.1184625,0,0,1.1184625,-47.739706,-55.039384)"><g
             id="g42"
             transform="translate(369.0034,466.6646)"><path
               d="m 0,0 c 0,-4.961 -2.547,-8.98 -5.689,-8.98 -3.14,0 -5.686,4.019 -5.686,8.98 0,4.959 2.546,8.979 5.686,8.979 C -2.547,8.979 0,4.959 0,0"
               style="fill:#6a3018;fill-opacity:1;fill-rule:nonzero;stroke:none"
               id="path44"
               inkscape:connector-curvature="0" /></g><g
             id="g46"
             transform="translate(437.54,463.6719)"><path
               d="m 0,0 c 0,-4.958 -2.548,-8.979 -5.689,-8.979 -3.139,0 -5.686,4.021 -5.686,8.979 0,4.957 2.547,8.98 5.686,8.98 C -2.548,8.98 0,4.957 0,0"
               style="fill:#6a3018;fill-opacity:1;fill-rule:nonzero;stroke:none"
               id="path48"
               inkscape:connector-curvature="0" /></g><g
             id="g174"
             transform="matrix(1,0,0,0.96737986,370.1768,424.2944)"><path
               sodipodi:nodetypes="csccscc"
               d="M 0,0 C 0,0 20.088,19.081 33.964,19.081 50.271,19.081 67.931,1.16 67.931,1.16 l -1.977,56.097 c 0,0 -16.352,5.275606 -31.99,5.275606 C 13.415,62.532606 1.083,54.151 1.083,54.151 Z"
               style="fill:#48423b;fill-opacity:1;fill-rule:nonzero;stroke:none"
               id="path176"
               inkscape:connector-curvature="0" /></g><g
             id="g178"
             transform="translate(385.144,453.2759)"><path
               d="m 0,0 c 0,-14.474 -8.703,-26.949 -21.122,-32.524 v -0.018 l -21.926,-10.847 c 13.956,8.079 23.355,23.179 23.355,40.422 0,20.461 -13.242,37.903 -31.63,44.174 L -26.68,34.506 V 34.488 C -11.365,30.504 0,16.564 0,0"
               style="fill:#6c6966;fill-opacity:1;fill-rule:nonzero;stroke:none"
               id="path180"
               inkscape:connector-curvature="0" /></g><g
             id="g182"
             transform="translate(365.4512,450.3091)"><path
               d="m 0,0 c 0,-17.243 -9.399,-32.343 -23.355,-40.422 -1.77,-1.036 -3.61,-1.947 -5.522,-2.715 -0.019,-0.038 -0.037,-0.038 -0.054,-0.038 -5.468,-2.267 -11.472,-3.519 -17.763,-3.519 -25.732,0 -46.676,20.943 -46.676,46.694 0,25.733 20.944,46.677 46.676,46.677 2.359,0 4.647,-0.179 6.898,-0.519 0.804,-0.125 1.626,-0.269 2.412,-0.429 0.108,-0.018 0.196,-0.035 0.287,-0.053 1.822,-0.375 3.591,-0.858 5.325,-1.448 0.053,-0.017 0.106,-0.035 0.142,-0.054 C -13.242,37.902 0,20.461 0,0"
               style="fill:#48423b;fill-opacity:1;fill-rule:nonzero;stroke:none"
               id="path184"
               inkscape:connector-curvature="0" /></g><g
             id="g186"
             transform="translate(360.0903,450.3008)"><path
               d="m 0,0 c 0,-22.823 -18.501,-41.326 -41.324,-41.326 -22.823,0 -41.325,18.503 -41.325,41.326 0,22.822 18.502,41.324 41.325,41.324 C -18.501,41.324 0,22.822 0,0"
               style="fill:#b6f3f4;fill-opacity:1;fill-rule:nonzero;stroke:none"
               id="path188"
               inkscape:connector-curvature="0" /></g><g
             id="g190"
             transform="translate(423.3789,454.2671)"><path
               d="m 0,0 c 0,-14.475 8.703,-26.948 21.121,-32.524 v -0.018 l 21.927,-10.847 c -13.956,8.077 -23.356,23.178 -23.356,40.422 0,20.462 13.242,37.902 31.631,44.174 L 26.68,34.506 V 34.489 C 11.365,30.504 0,16.564 0,0"
               style="fill:#6c6966;fill-opacity:1;fill-rule:nonzero;stroke:none"
               id="path192"
               inkscape:connector-curvature="0" /></g><g
             id="g194"
             transform="translate(443.0713,451.3003)"><path
               d="m 0,0 c 0,-17.245 9.399,-32.345 23.355,-40.422 1.771,-1.038 3.609,-1.948 5.523,-2.715 0.018,-0.038 0.035,-0.038 0.054,-0.038 5.468,-2.268 11.471,-3.519 17.762,-3.519 25.732,0 46.676,20.942 46.676,46.694 0,25.733 -20.944,46.676 -46.676,46.676 -2.36,0 -4.646,-0.177 -6.897,-0.518 -0.805,-0.125 -1.626,-0.268 -2.413,-0.429 -0.108,-0.018 -0.196,-0.035 -0.286,-0.052 -1.823,-0.376 -3.593,-0.86 -5.327,-1.449 -0.052,-0.017 -0.105,-0.036 -0.14,-0.054 C 13.241,37.902 0,20.461 0,0"
               style="fill:#48423b;fill-opacity:1;fill-rule:nonzero;stroke:none"
               id="path196"
               inkscape:connector-curvature="0" /></g><g
             id="g198"
             transform="translate(448.4316,451.291)"><path
               d="M 0,0 C 0,-22.822 18.501,-41.324 41.325,-41.324 64.147,-41.324 82.65,-22.822 82.65,0 82.65,22.822 64.147,41.325 41.325,41.325 18.501,41.325 0,22.822 0,0"
               style="fill:#b6f3f4;fill-opacity:1;fill-rule:nonzero;stroke:none"
               id="path200"
               inkscape:connector-curvature="0" /></g><g
             id="g202"
             transform="translate(413.6992,463.95985)"><path
               d="m 0,0 c 0,-4.873 -3.949,-8.823 -8.822,-8.823 -4.873,0 -8.824,3.95 -8.824,8.823 0,4.872 3.951,8.823 8.824,8.823 C -3.949,8.823 0,4.872 0,0"
               style="fill:#6c6966;fill-opacity:1;fill-rule:nonzero;stroke:none"
               id="path204"
               inkscape:connector-curvature="0" /></g><g
             id="g206"
             transform="translate(323.4097,487.6035)"><path
               d="m 0,0 c 0,0 25.144,-5.011 29.917,-29.917 0.865,-4.51 -3.923,-8.731 -6.693,0 C 20.14,-20.193 11.38,-10.031 -0.15,-6.114 -9.284,-3.01 -8.559,1.28 0,0"
               style="fill:#ffffff;fill-opacity:1;fill-rule:nonzero;stroke:none"
               id="path208"
               inkscape:connector-curvature="0" /></g><g
             id="g210"
             transform="translate(496.4697,487.6035)"><path
               d="m 0,0 c 0,0 25.143,-5.011 29.917,-29.917 0.864,-4.51 -3.923,-8.731 -6.693,0 C 20.141,-20.193 11.38,-10.031 -0.151,-6.114 -9.286,-3.01 -8.56,1.28 0,0"
               style="fill:#ffffff;fill-opacity:1;fill-rule:nonzero;stroke:none"
               id="path212"
               inkscape:connector-curvature="0" /></g><g
             id="g214"
             transform="translate(463.0654,430.8638)"><path
               d="m 0,0 c 0,0 3.133,-11.839 15.149,-13.378 2.174,-0.279 4.967,3.832 0.894,5.43 -5.119,2.009 -7.8,2.926 -10.01,8.307 C 4.285,4.622 -0.861,4.042 0,0"
               style="fill:#ffffff;fill-opacity:1;fill-rule:nonzero;stroke:none"
               id="path216"
               inkscape:connector-curvature="0" /></g><g
             id="g218"
             transform="translate(288.2769,430.8638)"><path
               d="m 0,0 c 0,0 3.132,-11.839 15.148,-13.378 2.176,-0.279 4.967,3.832 0.894,5.43 -5.119,2.009 -7.8,2.926 -10.008,8.307 C 4.284,4.622 -0.862,4.042 0,0"
               style="fill:#ffffff;fill-opacity:1;fill-rule:nonzero;stroke:none"
               id="path220"
               inkscape:connector-curvature="0" /></g></g></g></g></g></svg>